<svg version="1.1" id="Layer_1" xmlns="http://www.w3.org/2000/svg" xmlns:xlink="http://www.w3.org/1999/xlink" x="0" y="0" viewBox="0 0 1578 553" style="enable-background:new 0 0 1578 553" xml:space="preserve">
    <style>
        
    </style>
    <path d="m1513.94 166.18 6.08-35.73h-248.46c-19.18 0-35.64 13.65-39.19 32.5l-64.6 342.96H1449.99l14.09-75.39h-193.79l16.01-84.45h127.16l14.25-74.83h-127.15l14.74-60.35H1461c26.18.01 48.54-18.89 52.94-44.71" style="fill:#002169"/>
    <path style="fill:#fe3b1f" d="m784.84 505.99 113.29-91.58h244.35l-17.18 91.58z"/>
    <path d="M534.4 509.83h-2.53c-85.1 0-141.29-69.23-125.27-154.33l37.27-197.8c3.02-16.04 17.03-27.68 33.37-27.68h62.6L497.38 355.5c-6.59 35.03 16.53 63.55 51.58 63.55h2.53c35.03 0 68.92-28.52 75.52-63.55l37.25-197.8c3.02-16.04 17.05-27.68 33.36-27.68h62.63L717.8 355.5c-16.03 85.1-98.3 154.33-183.4 154.33M399.44 164.45l6.56-34.41H141.61c-21.34 0-39.66 15.17-43.6 36.14L33.72 505.99h91.01l30.81-159.35h144.58l13.76-75.81h-144.6l11.07-59.94h162.92c27.44 0 51-19.5 56.17-46.44" style="fill:#002169"/>
    <path d="M901.24 433.18H922.73c12.55 0 19.18 7.44 17.82 18.19l-.01.13c-1.52 12.19-11.78 18.48-23.58 18.48h-8.79l-2 15.79h-11.56l6.08-48.17.55-4.42zm17.39 26.52c5.79 0 9.59-3.45 10.17-7.96l.02-.15c.65-5.18-2.59-7.96-8.38-7.96h-8.94l-2.03 16.07h9.16zM945.76 459.62l.03-.15c1.88-14.96 15.21-27.2 31.45-27.2 16.22 0 26.33 12.11 24.43 27.04l-.01.16c-1.9 14.95-15.23 27.2-31.45 27.2-16.22.01-26.33-12.1-24.45-27.05m43.79 0 .01-.15c1.14-9.01-4.51-16.53-13.84-16.53-9.29 0-16.71 7.36-17.85 16.37l-.02.16c-1.14 9.03 4.53 16.52 13.84 16.52 9.34 0 16.72-7.35 17.86-16.37M1005.63 478.11l7.87-8.2c4.23 3.91 8.88 6.39 14.89 6.39 4.72 0 7.83-1.88 8.23-4.96l.01-.15c.35-2.93-1.24-4.44-9.74-6.69-10.27-2.71-16.72-5.64-15.41-16.09l.01-.15c1.21-9.53 9.66-15.85 20.41-15.85 7.67 0 13.9 2.4 18.68 6.69l-7.1 8.72c-4.25-3.24-8.57-5.18-13.01-5.18-4.44 0-7.02 2.03-7.34 4.57l-.02.16c-.46 3.45 1.66 4.57 10.46 6.91 10.32 2.77 15.84 6.6 14.68 15.78l-.03.15c-1.32 10.43-10.02 16.29-21.36 16.29-7.96.02-15.63-2.75-21.23-8.39M1072.76 443.84h-16l1.35-10.67h43.55l-1.34 10.67h-16l-5.28 41.93h-11.58z" style="fill:#fff"/>
    <g>
        <defs>
            <path id="SVGID_1_" d="M1051.13 158.76 802.61 372.61c-9.5 7.53-16.09 18.12-18.6 29.95l-17.79 91.37c-.64 2.95 2.78 5.06 5.13 3.17l422.85-359.05h-.01l-143.06 20.71z"/>
        </defs>
        <clipPath id="SVGID_00000121275474057682878330000006097371223413320080_">
            <use xlink:href="#SVGID_1_" style="overflow:visible"/>
        </clipPath>
        <linearGradient id="SVGID_00000126324975109339530300000016299532275398332039_" gradientUnits="userSpaceOnUse" x1="-199.049" y1="967.031" x2="-184.249" y2="967.031" gradientTransform="rotate(-35.716 -46588.296 4263.397) scale(29.8124)">
            <stop offset="0" style="stop-color:#ee313e"/>
            <stop offset=".138" style="stop-color:#ee343d"/>
            <stop offset=".229" style="stop-color:#ee3d3a"/>
            <stop offset=".307" style="stop-color:#ef4c36"/>
            <stop offset=".378" style="stop-color:#ef612f"/>
            <stop offset=".443" style="stop-color:#f07c26"/>
            <stop offset=".505" style="stop-color:#f19e1c"/>
            <stop offset=".562" style="stop-color:#f2c610"/>
            <stop offset=".597" style="stop-color:#f3e107"/>
            <stop offset=".695" style="stop-color:#f1df08"/>
            <stop offset=".753" style="stop-color:#e8d90d"/>
            <stop offset=".801" style="stop-color:#dacf15"/>
            <stop offset=".843" style="stop-color:#c6c021"/>
            <stop offset=".881" style="stop-color:#acae30"/>
            <stop offset=".916" style="stop-color:#8c9643"/>
            <stop offset=".949" style="stop-color:#667b59"/>
            <stop offset=".98" style="stop-color:#3b5c72"/>
            <stop offset="1" style="stop-color:#1b4584"/>
        </linearGradient>
        <path style="clip-path:url(#SVGID_00000121275474057682878330000006097371223413320080_);fill:url(#SVGID_00000126324975109339530300000016299532275398332039_)" d="m911.65 702.15 453.62-326.16L1048.12-65.1 594.5 261.06z"/>
    </g>
    <g>
        <defs>
            <path id="SVGID_00000048493284042108241760000012179914407868805546_" d="M803.41 130.67c-3.14 0-4.5 3.91-2.06 5.86l64.82 55.03c6.92 5.55 15.51 8.54 24.39 8.54h230.61l73.02-62.04c3.06-2.46 1.33-7.39-2.61-7.39H803.41z"/>
        </defs>
        <clipPath id="SVGID_00000074443591615710979930000015882329419985212092_">
            <use xlink:href="#SVGID_00000048493284042108241760000012179914407868805546_" style="overflow:visible"/>
        </clipPath>
        <linearGradient id="SVGID_00000059995208426799714840000012740105258931738785_" gradientUnits="userSpaceOnUse" x1="-168.219" y1="1008.118" x2="-153.419" y2="1008.118" gradientTransform="rotate(-179.313 -2168.157 16207.342) scale(32.0263)">
            <stop offset="0" style="stop-color:#1b4584"/>
            <stop offset=".097" style="stop-color:#1b4584"/>
            <stop offset=".179" style="stop-color:#154c8b"/>
            <stop offset=".297" style="stop-color:#045f9d"/>
            <stop offset=".32" style="stop-color:#0064a1"/>
            <stop offset=".34" style="stop-color:#0068a4"/>
            <stop offset=".573" style="stop-color:#008dc2"/>
            <stop offset=".76" style="stop-color:#00a4d4"/>
            <stop offset=".879" style="stop-color:#00acdb"/>
            <stop offset="1" style="stop-color:#00acdb"/>
        </linearGradient>
        <path style="clip-path:url(#SVGID_00000074443591615710979930000015882329419985212092_);fill:url(#SVGID_00000059995208426799714840000012740105258931738785_)" d="m1198.1 130.68-399.14-4.81-.89 74.22 399.13 4.81z"/>
    </g>
    <g>
        <path d="M810.87 95.67c-1.98-2.03-2.44-4.99-1.44-8.88 1.21-4.62 3.6-7.92 7.16-9.87 3.55-1.92 8.04-2.9 13.45-2.9h14.28l.87-3.39c.93-3.54.68-6.11-.72-7.78-1.41-1.64-4.34-2.47-8.81-2.47-2.41 0-4.82.25-7.22.74-2.4.5-4.56 1.15-6.5 1.94-.34.16-.66.24-.92.24-.33 0-.59-.31-.78-.95l-.66-2.6c-.07-.31-.09-.58-.03-.78.09-.37.5-.71 1.21-1.04 2.25-.93 4.83-1.67 7.71-2.2 2.92-.52 5.82-.78 8.76-.78 3.85 0 6.98.47 9.41 1.42 1.69-1.01 3.42-1.89 5.21-2.68 1.78-.8 3.14-1.29 4.1-1.49.33-.1.74-.16 1.21-.16.31 0 .53.06.67.16.13.09.21.31.24.64l.3 3.06c.01.15-.01.37-.09.64-.1.41-.44.73-1.04.95l-5.74 2.35-.15-.07c1.86 2.74 2.13 6.67.78 11.82l-6.17 23.59c-.21.8-.55 1.39-1.01 1.78-.47.38-1.13.59-1.97.59h-2.35c-1.64 0-2.27-.78-1.84-2.37l4.07-15.61h-14.03c-3.52 0-6.35.53-8.42 1.63-2.12 1.07-3.51 2.92-4.19 5.55-1.18 4.53.81 6.79 5.97 6.79 2.1 0 4.07-.33 5.9-.96.36-.1.61-.16.77-.16.37 0 .55.31.56.87l.06 2.53c.01.1 0 .25-.06.47-.1.41-.43.74-.96.95-1.07.47-2.41.83-3.98 1.11-1.61.25-3.27.38-5 .38-3.77-.03-6.64-1.03-8.61-3.06M852.83 48.15c-.3-.31-.31-.95-.06-1.91l2.53-9.69c.27-.95.61-1.58 1.05-1.89.46-.31 1.15-.46 2.1-.46h1.66c.95 0 1.55.15 1.84.46.31.31.31.95.06 1.89l-2.53 9.69c-.25.96-.59 1.6-1.05 1.91-.44.31-1.14.47-2.1.47h-1.64c-.95 0-1.57-.16-1.86-.47M866.7 96.03c-2.09-1.79-3.26-4.57-3.48-8.3l-.9-16.15c0-.43.04-.77.1-1.04.21-.73.64-1.21 1.33-1.42l2.9-.87c.44-.1.76-.16.92-.16.72 0 1.14.56 1.23 1.67l.99 16.96c.15 2.31.77 3.98 1.89 5 1.13 1.02 3.14 1.54 6.02 1.54 4 0 7.27-1.38 9.84-4.14 2.56-2.75 4.59-7 6.08-12.74 1.47-5.56 1.73-9.62.8-12.11-.92-2.49-3.2-3.73-6.82-3.73-2.07 0-4 .31-5.85.93l-.67.16c-.44 0-.66-.33-.71-.96l.01-3.08c-.01-.1-.01-.22.03-.38.06-.21.15-.37.33-.5.16-.13.4-.25.68-.37.9-.41 2.1-.74 3.58-1.02 1.5-.27 2.99-.38 4.53-.38 5.67 0 9.38 1.94 11.13 5.83s1.75 9.15.02 15.78c-1.88 7.21-4.9 12.7-9.03 16.49-4.16 3.79-9.32 5.68-15.52 5.68-4.2-.01-7.34-.91-9.43-2.69M904.64 96.33c-.46-.78-.43-2.16.07-4.1l8.84-33.76c.41-1.57 1.42-2.37 3.06-2.37h2.28c1.63 0 2.23.8 1.82 2.37l-8.1 30.99c-.22.86-.25 1.41-.07 1.66.16.27.67.4 1.51.4h3c.68 0 1.11.15 1.3.43.18.3.19.75.03 1.39l-.59 2.28c-.18.68-.46 1.17-.83 1.47-.35.28-.89.43-1.55.43h-7.03c-2.05 0-3.29-.4-3.74-1.19M930.51 95.55c-2.96-2.12-3.86-5.42-2.69-9.95 1.42-5.42 4.71-8.84 9.86-10.24-2.01-.9-3.39-2.13-4.11-3.67-.74-1.57-.78-3.55-.15-5.96.8-3.05 2.5-5.62 5.14-7.7 2.62-2.07 5.74-3.11 9.37-3.11 2.84 0 5.18.47 7.03 1.42.53.25.81.53.87.77.06.28-.05.62-.31 1.04l-1.42 2.13c-.37.58-.72.87-1.08.87-.33 0-.56-.06-.68-.16-1.11-.62-2.68-.93-4.72-.93-1.85 0-3.45.53-4.81 1.61-1.36 1.07-2.28 2.56-2.77 4.45-.59 2.25-.3 3.92.89 5s3.29 1.61 6.29 1.61h1.57c.62 0 1.07.13 1.29.36.22.24.27.67.09 1.3l-.43 1.66c-.3 1.17-1.05 1.75-2.25 1.75h-1.21c-3.12 0-5.62.59-7.46 1.76-1.84 1.18-3.11 3.15-3.83 5.88-1.35 5.17 1.95 7.74 9.9 7.74 4.31 0 7.64-.99 10.02-2.96 2.4-1.97 4.14-5.09 5.25-9.35l5.85-22.39c.41-1.57 1.42-2.37 3-2.37h2.44c.83 0 1.39.21 1.66.59s.28.98.09 1.78l-5.85 22.32c-1.43 5.52-4.03 9.89-7.78 13.1-3.76 3.2-9.1 4.81-16.06 4.81-5.7-.01-10.02-1.06-13-3.16M946.9 46.44c-1.01-1.6-1.14-3.77-.43-6.5.83-3.21 2.5-5.67 4.97-7.39 2.47-1.7 5.57-2.56 9.31-2.56h13.16c.68 0 1.11.1 1.27.31.15.22.15.64-.03 1.26l-.46 1.82c-.18.64-.37 1.04-.62 1.18-.27.16-.72.24-1.42.24h-12.61c-2.53 0-4.35.38-5.48 1.18-1.14.8-1.94 2.12-2.43 3.95-.38 1.52-.49 2.63-.27 3.34.21.71.83 1.05 1.88 1.05.84 0 1.54-.22 2.12-.68.58-.49.96-1.07 1.14-1.76l.33-1.26c.16-.62.56-.93 1.18-.93h2.61c.7 0 .95.31.78.93l-.34 1.26c-.43 1.64.21 2.44 1.88 2.44 1.54 0 2.53-.84 2.98-2.57l.47-1.75c.15-.64.55-.95 1.18-.95h3.08c.68 0 .93.31.77.95l-.59 2.21c-.52 2.01-1.52 3.6-3.02 4.81-1.49 1.21-3.3 1.81-5.4 1.81-2.57 0-4.1-.78-4.59-2.35-1.84 1.57-4.04 2.35-6.62 2.35-2.18.01-3.81-.79-4.8-2.39M978.35 94.8c-2.12-2.6-2.53-6.3-1.27-11.09l6.59-25.23c.21-.8.55-1.39 1.04-1.78.46-.41 1.11-.59 1.97-.59h2.35c1.63 0 2.23.78 1.82 2.37l-6.62 25.31c-.84 3.27-.67 5.64.52 7.09 1.2 1.48 3.46 2.22 6.85 2.22 2.23 0 4.53-.47 6.82-1.45 2.32-.98 4.29-2.22 5.96-3.76 1.64-1.51 2.69-3.09 3.12-4.72l6.45-24.69c.21-.8.55-1.39 1.02-1.78.47-.41 1.12-.59 1.95-.59h2.38c1.61 0 2.23.78 1.82 2.37l-9.63 36.82c-.19.74-.48 1.29-.86 1.66-.38.37-.95.56-1.69.56h-2.21c-.78 0-1.3-.15-1.51-.44-.21-.28-.22-.78-.03-1.52l1.01-3.79c-4.85 4.62-10.79 6.94-17.83 6.94-4.57 0-7.9-1.3-10.02-3.91M1057.12 95.67c-1.97-2.03-2.44-4.99-1.42-8.88 1.2-4.62 3.58-7.92 7.15-9.87 3.55-1.92 8.05-2.9 13.47-2.9h14.27l.89-3.39c.93-3.54.68-6.11-.72-7.78-1.41-1.64-4.34-2.47-8.81-2.47-2.43 0-4.82.25-7.24.74-2.38.5-4.54 1.15-6.5 1.94-.34.16-.66.24-.92.24-.31 0-.59-.31-.78-.95l-.65-2.6c-.09-.31-.1-.58-.05-.78.1-.37.52-.71 1.23-1.04 2.23-.93 4.81-1.67 7.7-2.2 2.92-.52 5.83-.78 8.78-.78 3.85 0 6.98.47 9.41 1.42 1.67-1.01 3.4-1.89 5.19-2.68 1.79-.8 3.14-1.29 4.1-1.49.34-.1.75-.16 1.23-.16.3 0 .53.06.67.16.13.09.21.31.22.64l.31 3.06c.01.15-.01.37-.09.64-.12.41-.46.73-1.04.95l-5.74 2.35-.15-.07c1.86 2.74 2.13 6.67.77 11.82l-6.16 23.59c-.21.8-.55 1.39-1.01 1.78-.49.38-1.13.59-1.97.59h-2.37c-1.64 0-2.25-.78-1.84-2.37l4.08-15.61h-14.03c-3.54 0-6.35.53-8.44 1.63-2.1 1.07-3.49 2.92-4.19 5.55-1.18 4.53.81 6.79 5.98 6.79 2.09 0 4.05-.33 5.9-.96.36-.1.61-.16.77-.16.36 0 .55.31.56.87l.04 2.53c.03.1.01.25-.04.47-.12.41-.43.74-.98.95-1.05.47-2.4.83-3.98 1.11-1.6.25-3.26.38-4.99.38-3.75-.03-6.64-1.03-8.61-3.06M1099.08 48.15c-.28-.31-.3-.95-.05-1.91l2.53-9.69c.25-.95.59-1.58 1.05-1.89.46-.31 1.14-.46 2.1-.46h1.64c.95 0 1.57.15 1.85.46.3.31.31.95.06 1.89l-2.55 9.69c-.24.96-.59 1.6-1.04 1.91-.44.31-1.15.47-2.1.47h-1.66c-.91 0-1.52-.16-1.83-.47M1112.95 96.03c-2.09-1.79-3.24-4.57-3.46-8.3l-.92-16.15c.01-.43.04-.77.12-1.04.19-.73.64-1.21 1.33-1.42l2.89-.87c.44-.1.77-.16.92-.16.72 0 1.15.56 1.23 1.67l1.01 16.96c.13 2.31.77 3.98 1.88 5 1.14 1.02 3.14 1.54 6.04 1.54 3.99 0 7.27-1.38 9.83-4.14 2.56-2.75 4.6-7 6.1-12.74 1.45-5.56 1.72-9.62.8-12.11-.93-2.49-3.21-3.73-6.84-3.73-2.06 0-3.98.31-5.85.93l-.67.16c-.43 0-.65-.33-.7-.96l.01-3.08c-.03-.1-.01-.22.03-.38a.93.93 0 0 1 .31-.5c.18-.13.4-.25.7-.37.9-.41 2.09-.74 3.57-1.02 1.51-.27 3-.38 4.53-.38 5.68 0 9.4 1.94 11.13 5.83 1.76 3.89 1.76 9.15.03 15.78-1.88 7.21-4.9 12.7-9.04 16.49-4.14 3.79-9.31 5.68-15.52 5.68-4.22-.01-7.37-.91-9.46-2.69M1150.89 96.33c-.44-.78-.42-2.16.09-4.1l8.83-33.76c.4-1.57 1.42-2.37 3.05-2.37h2.29c1.63 0 2.23.8 1.82 2.37l-8.1 30.99c-.24.86-.25 1.41-.09 1.66.16.27.68.4 1.52.4h2.99c.7 0 1.12.15 1.32.43.18.3.18.75.03 1.39l-.59 2.28c-.19.68-.46 1.17-.83 1.47-.36.28-.89.43-1.56.43h-7.03c-2.03 0-3.29-.4-3.74-1.19M1179.34 97.95c-2.64-.5-4.81-1.21-6.56-2.16-.53-.27-.83-.55-.93-.83-.12-.3-.01-.65.31-1.07l2-2.86c.37-.56.76-.86 1.17-.86.28 0 .58.07.9.24 1.38.78 3.2 1.44 5.48 1.94 2.29.49 4.63.74 7 .74 3.34 0 6.05-.41 8.1-1.26 2.01-.84 3.3-2.25 3.82-4.26.41-1.52.29-2.75-.3-3.67-.61-.92-1.61-1.72-3.06-2.44-1.45-.71-3.85-1.7-7.19-2.95-3.89-1.42-6.69-3.03-8.39-4.8-1.69-1.75-2.1-4.23-1.29-7.44.96-3.63 3.18-6.42 6.69-8.39 3.52-1.98 7.89-2.96 13.08-2.96 3 0 5.5.21 7.52.67 2.03.44 3.95 1.18 5.8 2.16.7.38.96.8.83 1.26-.07.33-.18.56-.33.73l-1.86 2.6c-.42.58-.81.86-1.17.86-.16 0-.44-.07-.81-.22-1.39-.74-3.08-1.33-5.06-1.78-1.98-.46-4.1-.67-6.36-.67-3.27 0-5.83.41-7.73 1.29-1.88.87-3.09 2.35-3.64 4.45-.35 1.36-.28 2.5.27 3.39.52.89 1.38 1.64 2.59 2.25 1.21.61 3.14 1.41 5.77 2.41l1.57.62c3.06 1.15 5.4 2.28 6.98 3.32 1.6 1.05 2.65 2.32 3.18 3.79.53 1.47.52 3.3-.06 5.52-.9 3.46-3.12 6.2-6.68 8.17-3.54 1.97-7.93 2.96-13.2 2.96-3 .01-5.81-.24-8.44-.75M1187.4 46.44c-.99-1.6-1.14-3.77-.42-6.5.83-3.21 2.49-5.67 4.96-7.39 2.47-1.7 5.57-2.56 9.31-2.56h13.16c.68 0 1.11.1 1.27.31.15.22.15.64-.01 1.26l-.47 1.82c-.18.64-.37 1.04-.62 1.18-.27.16-.72.24-1.42.24h-12.61c-2.53 0-4.35.38-5.48 1.18-1.14.8-1.94 2.12-2.43 3.95-.38 1.52-.49 2.63-.27 3.34.21.71.83 1.05 1.9 1.05.84 0 1.54-.22 2.1-.68.59-.49.96-1.07 1.14-1.76l.33-1.26c.16-.62.56-.93 1.18-.93h2.61c.7 0 .95.31.78.93l-.33 1.26c-.43 1.64.19 2.44 1.86 2.44 1.55 0 2.53-.84 2.98-2.57l.47-1.75c.15-.64.56-.95 1.18-.95h3.08c.68 0 .93.31.77.95l-.58 2.21c-.52 2.01-1.52 3.6-3.04 4.81-1.49 1.21-3.28 1.81-5.4 1.81-2.57 0-4.1-.78-4.59-2.35-1.84 1.57-4.03 2.35-6.62 2.35-2.17.01-3.8-.79-4.79-2.39M1210.85 95.86c-.67-.41-.95-.83-.86-1.26.09-.31.21-.55.36-.71l2.03-2.6c.46-.58.84-.86 1.17-.86.15 0 .42.07.8.24 3.09 1.63 6.88 2.44 11.35 2.44 4.84 0 9-1.27 12.49-3.82 3.46-2.56 5.95-6.69 7.46-12.43 1.51-5.79 1.29-9.95-.68-12.51-1.95-2.55-5.52-3.82-10.67-3.82-4.37 0-8.44.81-12.24 2.44-.42.15-.73.24-.93.24-.31 0-.55-.3-.71-.87l-.67-2.59c-.06-.16-.05-.41.03-.71.12-.49.64-.9 1.51-1.27 2.29-.95 4.6-1.66 6.91-2.13 2.31-.46 4.82-.71 7.56-.71 7.35 0 12.51 1.81 15.46 5.42 2.94 3.6 3.45 9.1 1.51 16.52-1.88 7.19-5.28 12.64-10.21 16.32-4.93 3.67-11.01 5.52-18.2 5.52-5.42-.01-9.92-.96-13.47-2.85M1291.94 95.67c-1.97-2.03-2.44-4.99-1.42-8.88 1.21-4.62 3.58-7.92 7.15-9.87 3.55-1.92 8.05-2.9 13.47-2.9h14.28l.87-3.39c.93-3.54.68-6.11-.72-7.78-1.41-1.64-4.34-2.47-8.81-2.47-2.43 0-4.82.25-7.24.74-2.38.5-4.54 1.15-6.48 1.94-.36.16-.67.24-.93.24-.31 0-.58-.31-.77-.95l-.66-2.6c-.09-.31-.09-.58-.05-.78.1-.37.52-.71 1.23-1.04 2.23-.93 4.81-1.67 7.7-2.2 2.92-.52 5.83-.78 8.78-.78 3.85 0 6.98.47 9.41 1.42 1.67-1.01 3.42-1.89 5.19-2.68 1.79-.8 3.15-1.29 4.1-1.49.34-.1.75-.16 1.23-.16.31 0 .53.06.67.16.13.09.21.31.22.64l.31 3.06c.01.15-.01.37-.09.64-.12.41-.44.73-1.02.95l-5.76 2.35-.15-.07c1.86 2.74 2.13 6.67.78 11.82l-6.17 23.59c-.21.8-.55 1.39-1.01 1.78-.49.38-1.13.59-1.97.59h-2.37c-1.64 0-2.25-.78-1.82-2.37l4.07-15.61h-14.03c-3.52 0-6.35.53-8.44 1.63-2.1 1.07-3.49 2.92-4.19 5.55-1.18 4.53.81 6.79 5.98 6.79 2.09 0 4.07-.33 5.92-.96.34-.1.59-.16.75-.16.36 0 .55.31.56.87l.06 2.53c.02.1 0 .25-.06.47-.12.41-.43.74-.98.95-1.05.47-2.38.83-3.98 1.11-1.6.25-3.26.38-4.99.38-3.77-.03-6.65-1.03-8.62-3.06M1333.91 48.15c-.3-.31-.31-.95-.06-1.91l2.55-9.69c.25-.95.58-1.58 1.04-1.89.46-.31 1.15-.46 2.1-.46h1.66c.95 0 1.55.15 1.84.46.3.31.31.95.06 1.89l-2.53 9.69c-.25.96-.61 1.6-1.05 1.91-.44.31-1.14.47-2.1.47h-1.64c-.97 0-1.57-.16-1.87-.47M1347.77 96.03c-2.07-1.79-3.24-4.57-3.46-8.3l-.9-16.15c0-.43.04-.77.12-1.04.19-.73.62-1.21 1.32-1.42l2.9-.87c.43-.1.76-.16.9-.16.74 0 1.15.56 1.23 1.67l1.01 16.96c.15 2.31.77 3.98 1.88 5 1.14 1.02 3.15 1.54 6.04 1.54 3.99 0 7.27-1.38 9.84-4.14 2.56-2.75 4.59-7 6.08-12.74 1.45-5.56 1.72-9.62.8-12.11-.93-2.49-3.21-3.73-6.84-3.73-2.06 0-3.98.31-5.83.93l-.66.16c-.44 0-.67-.33-.71-.96l.01-3.08c-.03-.1-.01-.22.03-.38.04-.21.15-.37.33-.5.16-.13.38-.25.68-.37.9-.41 2.1-.74 3.58-1.02 1.5-.27 2.99-.38 4.51-.38 5.68 0 9.4 1.94 11.15 5.83s1.75 9.15.01 15.78c-1.88 7.21-4.9 12.7-9.04 16.49-4.14 3.79-9.31 5.68-15.52 5.68-4.22-.01-7.36-.91-9.46-2.69M1393.2 99.38c-.25-.27-.37-.77-.4-1.51l.8-37.46c-.02-.16.01-.4.1-.71.24-.89.86-1.33 1.85-1.33h5.14c.78 0 1.29.13 1.49.43.22.28.31.8.27 1.52l-.92 25.25 12.37-21.37c.31-.58.64-1.01 1.02-1.3.36-.28.86-.44 1.48-.44h3.32c.64 0 1.05.16 1.27.44.22.3.31.73.33 1.3l1.44 21.37 17.83-37.78c.36-.68.67-1.14.99-1.35.31-.21.86-.31 1.66-.31h5.19c1.01 0 1.39.46 1.17 1.35-.09.31-.18.55-.27.71l-24.51 49.68c-.36.74-.73 1.24-1.09 1.51-.4.27-.95.38-1.7.38h-4.25c-.58 0-.99-.1-1.26-.34-.24-.25-.4-.68-.44-1.32l-1.2-23.41-13.47 23.41c-.38.64-.76 1.07-1.13 1.32-.38.24-.86.34-1.43.34h-4.26c-.68.01-1.14-.11-1.39-.38" style="fill:#002169"/>
        <path d="M1406.93 49.68c-.28-.41-.3-1.12-.03-2.13l.47-1.81c.27-1.01.64-1.72 1.14-2.16.55-.44 1.3-.68 2.37-.68h20.99c1.05 0 1.73.24 2.03.68.31.44.33 1.15.06 2.16l-.47 1.81c-.27 1.01-.65 1.72-1.18 2.13-.53.43-1.32.64-2.37.64h-20.99c-1.07 0-1.73-.21-2.02-.64M1421.41 36.4c-.31-.44-.3-1.33.06-2.65l.74-2.83h-2.68c-.8 0-1.29-.16-1.49-.47-.21-.33-.21-.87-.01-1.67l.62-2.28c.19-.78.49-1.35.86-1.66.37-.31.95-.46 1.73-.46h6.48c.89 0 1.47.18 1.73.59.28.38.28 1.01.07 1.85l-1.04 4.01c6.16-.46 10.15-.71 11.99-.71.86 0 1.35.15 1.52.43.15.3.12.83-.07 1.63l-.73 2.75c-.21.78-.49 1.35-.87 1.67-.37.3-.95.47-1.75.47h-14.67c-1.35.01-2.18-.23-2.49-.67M1443.87 100.13c-2.28-.55-4.32-1.39-6.13-2.49-.68-.43-.96-.9-.81-1.44.06-.25.25-.56.56-.93l2.99-3.63c.55-.64.96-.95 1.27-.95.22 0 .56.13 1.02.4 3 1.57 6.47 2.35 10.42 2.35 9.15 0 14.98-4.75 17.46-14.27 1.33-5.17 1.15-8.85-.56-11.09-1.69-2.23-4.78-3.36-9.25-3.36-4.1 0-7.89.8-11.34 2.38-.61.25-1.02.38-1.29.38-.37 0-.64-.33-.78-.95l-1.02-3.64c-.12-.36-.13-.71-.05-1.01.15-.53.62-.98 1.47-1.35 2.4-1.15 4.85-2.01 7.37-2.58 2.5-.55 5.28-.81 8.33-.81 7.46 0 12.68 1.84 15.64 5.48 2.96 3.67 3.48 9.16 1.55 16.53-1.88 7.19-5.3 12.62-10.24 16.29-4.96 3.66-11.1 5.48-18.47 5.48-3.15.04-5.87-.24-8.14-.79M1487.01 97.01c-2.66-2.63-3.39-6.2-2.21-10.73l.96-3.71c.81-3.09 2.43-5.83 4.84-8.23 2.41-2.4 5.18-4.22 8.3-5.48l.5-1.98c.16-.58.16-.99.02-1.21-.16-.25-.49-.37-1.02-.37-.78 0-1.63.49-2.49 1.42l-.18.64c-.33 1.21-1.05 1.81-2.22 1.81h-2.83c-1.21 0-1.66-.59-1.35-1.81l1.88-7.18c.33-1.2 1.07-1.81 2.28-1.81h3.32c1.21 0 1.66.61 1.35 1.81l-.1.4c1.85-1.48 3.92-2.21 6.17-2.21 3.43 0 4.66 1.84 3.69 5.52l-1.48 5.68c-.21.83-.49 1.49-.79 1.97-.31.47-.81.89-1.48 1.24-2.32 1.27-4.16 2.6-5.46 4-1.32 1.41-2.26 3.27-2.89 5.64l-1.02 3.86c-.58 2.2-.25 3.92.96 5.14 1.2 1.2 3.21 1.81 5.99 1.81 2.89 0 5.17-.58 6.84-1.73 1.66-1.15 2.8-2.89 3.4-5.21l1.54-5.83c.5-1.95.53-3.43.13-4.45-.43-1.02-1.29-2.04-2.59-3.03-.36-.27-.59-.53-.71-.8-.12-.25-.12-.65.03-1.18l.46-1.73c.12-.47.33-.83.59-1.07.27-.24.72-.59 1.39-1.07 2.03-1.3 3.48-2.52 4.41-3.64.92-1.1 1.66-2.71 2.22-4.88.15-.58.35-.95.61-1.14.27-.19.68-.27 1.26-.27h7.34c.49 0 .77.07.87.27.12.19.1.52-.02.99-.65 2.49-1.83 4.72-3.54 6.79a19.024 19.024 0 0 1-6.3 4.88c2.18 1.1 3.52 2.58 4.01 4.41.5 1.84.4 4.11-.31 6.78l-.93 3.57c-1.3 5.05-3.89 8.98-7.74 11.82s-8.85 4.26-14.99 4.26c-5.81-.01-10.06-1.32-12.71-3.96M1511.28 49.85c-.22-.31-.24-.92-.02-1.75l1.45-5.52c.47-1.84 1.21-3.15 2.21-3.94.99-.8 2.49-1.2 4.5-1.2H1537c1.01 0 1.63.19 1.84.52.22.35.22.99-.03 1.94l-.65 2.44c-.21.9-.59 1.52-1.08 1.89-.49.37-1.26.55-2.31.55-2.99 0-7.67-.33-14-1.02l-1.15 4.34c-.21.83-.52 1.44-.92 1.75-.38.31-.98.46-1.76.46h-4.12c-.79 0-1.29-.15-1.54-.46" style="fill:#002169"/>
    </g>
</svg>
