<svg aria-hidden="true" data-prefix="fad" data-icon="shopping-basket" className="svg-inline--fa fa-shopping-basket fa-w-18" xmlns="http://www.w3.org/2000/svg" viewBox="0 0 576 512">
    <g className="fa-group">
        <path className="fa-secondary" fill="#002169" d="M242.82 38.12a32 32 0 0 0-44.7 7.06L91.34 192h79.14l79.4-109.18a32 32 0 0 0-7.06-44.7zm135.06 7.06a32 32 0 1 0-51.76 37.64L405.52 192h79.14z" opacity=".4"/>
        <path className="fa-primary" fill="#002169" d="M552 192H24a24 24 0 0 0-24 24v16a24 24 0 0 0 24 24h8l26.11 182.79A48 48 0 0 0 105.63 480h364.74a48 48 0 0 0 47.52-41.21L544 256h8a24 24 0 0 0 24-24v-16a24 24 0 0 0-24-24zM200 392a24 24 0 0 1-48 0V280a24 24 0 0 1 48 0zm112 0a24 24 0 0 1-48 0V280a24 24 0 0 1 48 0zm112 0a24 24 0 0 1-48 0V280a24 24 0 0 1 48 0z"/>
    </g>
</svg>
