<svg aria-hidden="true" data-prefix="fad" data-icon="clock" className="svg-inline--fa fa-clock fa-w-16" xmlns="http://www.w3.org/2000/svg" viewBox="0 0 512 512">
    <g className="fa-group">
        <path className="fa-secondary" fill="#959595" d="M256 8C119 8 8 119 8 256s111 248 248 248 248-111 248-248S393 8 256 8zm92.49 313-20 25a16 16 0 0 1-22.49 2.5l-67-49.72a40 40 0 0 1-15-31.23V112a16 16 0 0 1 16-16h32a16 16 0 0 1 16 16v144l58 42.5a16 16 0 0 1 2.49 22.5z" opacity=".4"/>
        <path className="fa-primary" fill="#959595" d="m348.49 321-20 25a16 16 0 0 1-22.49 2.5l-67-49.72a40 40 0 0 1-15-31.23V112a16 16 0 0 1 16-16h32a16 16 0 0 1 16 16v144l58 42.5a16 16 0 0 1 2.49 22.5z"/>
    </g>
</svg>
