<svg aria-hidden="true" data-prefix="fad" data-icon="smile" className="svg-inline--fa fa-smile fa-w-16" xmlns="http://www.w3.org/2000/svg" viewBox="0 0 496 512">
    <g className="fa-group">
        <path className="fa-secondary" fill="#43b7fe" d="M248 8C111 8 0 119 0 256s111 248 248 248 248-111 248-248S385 8 248 8zm80 168a32 32 0 1 1-32 32 32 32 0 0 1 32-32zm-160 0a32 32 0 1 1-32 32 32 32 0 0 1 32-32zm194.8 170.2a149.38 149.38 0 0 1-229.6 0c-13.6-16.3 11-36.7 24.6-20.5a117.5 117.5 0 0 0 180.4 0c13.4-16.2 38.1 4.2 24.6 20.5z" opacity=".4"/>
        <path className="fa-primary" fill="#43b7fe" d="M328 176a32 32 0 1 0 32 32 32 32 0 0 0-32-32zm-160 0a32 32 0 1 0 32 32 32 32 0 0 0-32-32z"/>
    </g>
</svg>
